<svg xmlns="http://www.w3.org/2000/svg" viewBox="0 0 1217.15 788.53"><defs><style>.cls-1{fill:#fff;}.cls-1,.cls-2,.cls-3{stroke:#fff;stroke-miterlimit:10;}.cls-2,.cls-3{fill:none;}.cls-2{stroke-width:24px;}.cls-3{stroke-width:19px;}</style></defs><title>logo-basic</title><g id="Layer_2" data-name="Layer 2"><g id="Layer_4" data-name="Layer 4"><path class="cls-1" d="M545.16,656.33c1.2,11.7,3.3,17.7,9,25.2a45,45,0,0,0,37.2,18.9c17.1,0,33.3-9.3,41.4-23.7l20.1,7.5c-11.4,23.1-35.1,37.2-61.5,37.2-41.1,0-70.5-30-70.5-72,0-42.6,29.1-72.9,69.6-72.9,40.2,0,70.2,30.3,70.2,70.8,0,1.8,0,5.7-.3,9Zm91.2-16.8c-.9-10.8-3-16.8-7.8-23.7a47.46,47.46,0,0,0-38.1-18.9c-15.3,0-29.1,7.2-37.2,19.2-4.2,6.6-6,12.3-7.8,23.4Z"/><path class="cls-1" d="M743,617.63v-1.5c0-12.9-10.5-21-26.4-21-15.31,0-24.9,7.8-24.9,19.8s6,16.5,30.9,23.4c17.7,4.8,27,9.3,33.6,15.9a38.63,38.63,0,0,1,11.1,27c0,24-19.8,40.2-49.2,40.2-31.5,0-49.2-14.7-51.61-42.6H689c1.5,15.6,11.71,24,29.11,24,15.6,0,25.8-8.1,25.8-20.4,0-12-7.8-18-31.5-24-30-8.1-43.5-20.7-43.5-41.7,0-24,19.5-40.2,48.59-40.2,29.41,0,47.11,15,48.31,41.1Z"/><path class="cls-1" d="M814.45,556.13a14.47,14.47,0,0,1-14.7,14.4,14.7,14.7,0,0,1,.3-29.4C808.15,541.13,814.45,547.73,814.45,556.13Zm-3.3,162h-22.8V579.83h22.8Z"/><path class="cls-1" d="M945.05,579.83h22.8V719c0,23.1-5.7,38.7-18.3,50.7-12.3,12-30,18.3-51,18.3q-38.7,0-61.2-25.2l15.6-15.6c6.3,6.6,9.3,9.3,13.2,12,7.8,4.8,20.7,8.1,32.4,8.1,14.4,0,28.2-5.1,36-13.5,6.9-7.5,10.5-18.6,10.5-33v-29.1c-13.5,20.4-29.4,29.7-51,29.7-36.6,0-63.9-30.9-63.9-72,0-22.2,8.1-43.5,21.9-56.7,11.1-10.8,26.1-16.2,43.8-16.2,21,0,35.1,7.8,49.2,27Zm-90.9,68.7c0,29.7,19.2,51.9,45.3,51.9,13.2,0,26.1-6.3,35.1-16.8,6-6.9,9.9-20.4,9.9-34.2,0-18-2.7-27.6-10.8-36.6-8.4-9.3-21.3-15.3-33.6-15.3C873.05,597.53,854.15,618.53,854.15,648.53Z"/><path class="cls-1" d="M1012.55,579.83v19.5c12-16.2,24-22.8,41.1-22.8,12.6,0,24,4.2,32.1,11.4,8.7,8.4,11.7,18,11.7,36.9v93.3h-22.8v-88.2c0-12.3-1.5-18.9-5.1-23.7-4.2-5.7-12.3-9.3-21.6-9.3a34.41,34.41,0,0,0-26.4,11.7c-6.6,7.2-9,13.8-9,25.2v84.3h-22.8V579.83Z"/><path class="cls-1" d="M1192.35,617.63v-1.5c0-12.9-10.5-21-26.4-21-15.3,0-24.9,7.8-24.9,19.8s6,16.5,30.9,23.4c17.7,4.8,27,9.3,33.6,15.9a38.63,38.63,0,0,1,11.1,27c0,24-19.8,40.2-49.2,40.2-31.5,0-49.2-14.7-51.6-42.6h22.5c1.5,15.6,11.7,24,29.1,24,15.6,0,25.8-8.1,25.8-20.4,0-12-7.8-18-31.5-24-30-8.1-43.5-20.7-43.5-41.7,0-24,19.5-40.2,48.6-40.2,29.4,0,47.1,15,48.3,41.1Z"/><path class="cls-1" d="M581.75,352.53V351c0-12.9-10.5-21-26.4-21-15.3,0-24.9,7.8-24.9,19.8s6,16.5,30.9,23.4c17.7,4.8,27,9.3,33.6,15.9a38.58,38.58,0,0,1,11.1,27c0,24-19.8,40.2-49.2,40.2-31.5,0-49.2-14.7-51.6-42.6h22.5c1.5,15.6,11.7,24,29.1,24,15.6,0,25.81-8.1,25.81-20.4,0-12-7.81-18-31.51-24-30-8.1-43.5-20.7-43.5-41.7,0-24,19.5-40.2,48.6-40.2,29.41,0,47.11,15,48.3,41.1Z"/><path class="cls-1" d="M411.58,518.29H381.5V431c7.57,9.9,11.8,13.5,20.28,17.69a67.31,67.31,0,0,0,30.56,7.2c38.74,0,65.67-30,65.67-73.46,0-42-26.93-71.37-65.67-71.37-23.3,0-37.52,8.1-50.84,28.49V314.4h-23v14.51c-12.05-10.8-28.13-17-46.61-17-26.1,0-47.1,11.39-59.22,30.34-12.15-18.82-32.82-30.34-57.94-30.34-18.6,0-34.61,5.78-46.65,16C140,281,105.81,253.4,53.5,253.4H.5v200H49c29,0,52.1-7.5,69.46-23.09a85.29,85.29,0,0,0,12.11-13.47c10.71,24.44,33.82,39.86,63.25,39.86a69.77,69.77,0,0,0,58.52-31.1c12,19.3,32.91,31.1,58.64,31.1a69.9,69.9,0,0,0,47.51-18.25v79.84h0v200.1h48.6c29.1,0,52.2-7.5,69.6-23.1,20.4-18.3,31.5-46.2,31.5-80.1C508.18,554.89,471.88,518.29,411.58,518.29ZM382.13,379.54c2.4-28.74,20.55-47.71,46.23-47.71a44.72,44.72,0,0,1,32.7,14.4c8.1,9,12,21.3,12,37.5,0,31.5-18.3,52.8-45.6,52.8-25.92,0-43.73-18.12-45.46-45.89-.09-1.47-.14-3-.14-4.51Q381.86,382.76,382.13,379.54Zm-285,36.88c-14.38,11.38-28.76,15-62.62,15h-9v-157h27c45.84,0,71.6,27.56,71.6,75.8C124.07,379.87,115.09,402,97.11,416.42Zm97.56,18.91c-28.2,0-47.1-20.7-47.1-51.3,0-30.9,18.9-51.6,47.4-51.6,27.9,0,46.5,20.7,46.5,51.6C241.47,414,222,435.33,194.67,435.33Zm117.39,0c-28.2,0-47.1-20.7-47.1-51.3,0-30.9,18.9-51.6,47.4-51.6,27.9,0,46.5,20.7,46.5,51.6C358.86,414,339.36,435.33,312.06,435.33ZM455.38,681.79c-14.4,11.4-28.8,15-62.7,15h-9V539.59h27c45.9,0,71.7,27.6,71.7,75.9C482.38,645.19,473.38,667.39,455.38,681.79Z"/><path class="cls-1" d="M457.45,374.13a14.47,14.47,0,0,1-14.7,14.4,14.7,14.7,0,0,1,.3-29.4C451.15,359.13,457.45,365.73,457.45,374.13Z"/><path class="cls-2" d="M596.24,344.42l261-276-234,152,82-168-193,164,57-157-132,151,32-164s-99.24,126-99.24,268"/><path class="cls-3" d="M557.24,447.42c61.85,0,183.36.6,186.51,1,14.88,1.9,32.72,14.18,33.9,32.9,1.48,23.52-19.83,43.24-39.16,46.15-4.37.66-8.12,1.39-10.76,1h-167c23.33-13.85,6.66-3.7,30-17.55"/></g></g></svg>