<svg xmlns="http://www.w3.org/2000/svg" viewBox="0 0 598.28 699.83"><defs><style>.cls-1{fill:#fff;}.cls-1,.cls-2,.cls-3{stroke:#fff;stroke-miterlimit:10;}.cls-2{fill:#b43ce0;stroke-width:22px;}.cls-3{fill:none;stroke-width:19px;}</style></defs><title>nav-logo</title><g id="Layer_2" data-name="Layer 2"><g id="Layer_4" data-name="Layer 4"><path class="cls-1" d="M.5,367.49c0,25.54,12.72,44.1,32.89,49.77-6.05-26.93-5.71-71.93.58-99.23C13.88,323.79.5,342.65.5,367.49Z"/><path class="cls-1" d="M265.47,391.17c-24.9-6.9-30.9-11.4-30.9-23.4s9.6-19.8,24.9-19.8a26.27,26.27,0,0,1,26.4,26l27.19-25.65S284,329.37,260.37,329.37c-11.92,0-22.22,2.72-30.23,7.58-.08-.28-.18-.56-.27-.84C220.82,309.24,198.09,292,168.46,292c-23.3,0-42.52,9.1-55.84,29.49V295.34h-18v20.75c-13.42-13.41-31.28-21.27-46.48-21.27-6.23,0-11,9.32-14.17,23.21a48.08,48.08,0,0,1,13.33-1.84c28.2,0,47.1,20.7,47.1,51.3,0,30.9-18.9,51.6-47.4,51.6a50.54,50.54,0,0,1-13.62-1.82c3,13.43,7.62,22.37,13.86,22.37,10.65,0,26.38-6.88,36.95-12.19a46.81,46.81,0,0,0,10.43-7.17v79h0v200.1h48.6c29.1,0,52.2-7.5,69.6-23.1,20.4-18.3,31.5-46.2,31.5-80.1,0-60.3-36.3-96.9-96.6-96.9H117.62V412c7.57,9.9,11.8,13.5,20.28,17.69a67.31,67.31,0,0,0,30.56,7.2c26.87,0,48-14.42,58.51-37.76l.34.24c6.88,4.83,16.14,8.73,28,11.92,23.7,6,31.51,12,31.51,24,0,12.3-10.21,20.4-25.81,20.4-17.4,0-27.6-8.4-29.1-24h-22.5c2.4,27.9,20.1,42.6,51.6,42.6,17.17,0,31.06-5.52,39.65-14.9a36.63,36.63,0,0,0,9.55-25.3,38.58,38.58,0,0,0-11.1-27C292.47,400.47,283.17,396,265.47,391.17ZM119.8,520.53h27c45.9,0,71.7,27.6,71.7,75.9,0,29.7-9,51.9-27,66.3-14.4,11.4-28.8,15-62.7,15h-9Zm43.78-103.06c-25.92,0-43.73-18.12-45.46-45.89-.09-1.47-.14-3-.14-4.51q0-3.37.27-6.59c2.4-28.74,20.55-47.71,46.23-47.71a44.72,44.72,0,0,1,32.7,14.4c8.1,9,12,21.3,12,37.5C209.18,396.17,190.88,417.47,163.58,417.47Z"/><path class="cls-2" d="M541.31,121.91S417.85,222.58,399.13,242.81c-39.46,42.63-106.74,114.47-108,110-3.82-13.4-22.16-19.47-32.75-19.47a23.64,23.64,0,0,0-7.81,1.46,35.42,35.42,0,0,1-39.1-11.4C200.53,310,185.29,301,166.46,301c-16.37,0-43.2,14-56.38,23.46-6.4,4.58-5-28.16-5-28.16,0-138.61,98.24-260,98.24-260l-15.7,135.93S239.49,97.71,269,75.38L288.63,60.5l-32,117.59S366.13,84.53,419.71,53.67l4.2-2.42L370.43,183.58Z"/><path class="cls-3" d="M321.86,507.85c-23.33,13.86-6.67,3.71-30,17.56H423.54a29.76,29.76,0,0,0,8.44-1.22l.85-.25c28.7-8.44,28.6-49.13-.14-57.43h0a29.88,29.88,0,0,0-8.3-1.17H261.62"/></g></g></svg>