<svg xmlns="http://www.w3.org/2000/svg" viewBox="0 0 2034 1170"><defs><style>.cls-1,.cls-4{fill:none;}.cls-1,.cls-2,.cls-3,.cls-4{stroke:#fff;stroke-miterlimit:10;}.cls-2{fill:#fff;}.cls-3{fill:#b43ce0;stroke-width:22px;}.cls-4{stroke-width:19px;}</style></defs><title>fulltopsd</title><g id="Layer_2" data-name="Layer 2"><g id="Layer_2-2" data-name="Layer 2"><polygon class="cls-1" points="2031.38 1169.5 0.5 1169.5 2.62 0.5 2033.5 0.5 2031.38 1169.5"/></g><g id="Layer_4" data-name="Layer 4"><path class="cls-2" d="M676.88,513.15c0,25.54,12.72,44.1,32.88,49.78-6-26.94-5.7-71.94.59-99.24C690.25,469.45,676.88,488.31,676.88,513.15Z"/><path class="cls-2" d="M941.85,536.83c-24.9-6.9-30.9-11.4-30.9-23.4s9.6-19.8,24.9-19.8a26.27,26.27,0,0,1,26.4,26L989.44,494s-29.09-19-52.69-19c-11.92,0-22.22,2.72-30.23,7.58-.08-.28-.18-.56-.27-.84-9-26.87-31.78-44.07-61.41-44.07-23.3,0-42.52,9.1-55.84,29.49V441H771v20.75c-13.42-13.41-31.28-21.27-46.48-21.27-6.23,0-11,9.32-14.17,23.21a48.08,48.08,0,0,1,13.33-1.84c28.2,0,47.1,20.7,47.1,51.3,0,30.9-18.9,51.6-47.4,51.6a50.54,50.54,0,0,1-13.62-1.82c3,13.43,7.62,22.37,13.86,22.37,10.65,0,26.38-6.88,37-12.19A46.81,46.81,0,0,0,771,565.94v78.95h0V845h48.6c29.1,0,52.2-7.5,69.6-23.1,20.4-18.3,31.5-46.2,31.5-80.1,0-60.3-36.3-96.9-96.6-96.9H794V557.64c7.57,9.9,11.8,13.5,20.28,17.69a67.31,67.31,0,0,0,30.56,7.2c26.87,0,48-14.42,58.51-37.76l.34.24c6.88,4.83,16.14,8.73,28,11.92,23.7,6,31.51,12,31.51,24,0,12.3-10.21,20.4-25.81,20.4-17.4,0-27.6-8.4-29.1-24h-22.5c2.4,27.9,20.1,42.6,51.6,42.6,17.17,0,31.06-5.52,39.65-14.9a36.63,36.63,0,0,0,9.55-25.3,38.58,38.58,0,0,0-11.1-27C968.85,546.13,959.55,541.63,941.85,536.83ZM796.18,666.19h27c45.9,0,71.7,27.6,71.7,75.9,0,29.7-9,51.9-27,66.3-14.4,11.4-28.8,15-62.7,15h-9ZM840,563.13c-25.92,0-43.73-18.12-45.46-45.89-.09-1.47-.14-3-.14-4.51q0-3.37.27-6.59c2.4-28.74,20.55-47.71,46.23-47.71a44.72,44.72,0,0,1,32.7,14.4c8.1,9,12,21.3,12,37.5C885.56,541.83,867.26,563.13,840,563.13Z"/><path class="cls-3" d="M1217.69,267.57s-123.46,100.67-142.19,120.9c-39.45,42.63-106.73,114.47-108,110C963.67,485.11,945.34,479,934.75,479a23.7,23.7,0,0,0-7.82,1.46,35.43,35.43,0,0,1-39.1-11.39c-10.92-13.43-26.16-22.4-45-22.4-16.38,0-43.21,14-56.39,23.46-6.39,4.59-5-28.16-5-28.16,0-138.6,98.24-260,98.24-260L864,318s51.83-74.58,81.31-96.91L965,206.17,933,323.75s109.51-93.56,163.09-124.42l4.2-2.42-53.48,132.33Z"/><path class="cls-4" d="M998.24,653.52c-23.34,13.85-6.67,3.7-30,17.55h131.68a30.11,30.11,0,0,0,8.44-1.21l.85-.25c28.7-8.45,28.6-49.13-.14-57.44h0a30.26,30.26,0,0,0-8.3-1.17H938"/><path class="cls-2" d="M855.55,484.72a14.7,14.7,0,1,0,14.4,15C870,491.32,863.65,484.72,855.55,484.72ZM855.37,503a3.54,3.54,0,0,1,.07-7.07,3.54,3.54,0,0,1-.07,7.07Z"/></g></g></svg>