<svg xmlns="http://www.w3.org/2000/svg" viewBox="0 0 1923 1081"><defs><style>.cls-1{fill:#3b0d4f;}.cls-1,.cls-2,.cls-3,.cls-4,.cls-5{stroke:#fff;stroke-miterlimit:10;}.cls-2{fill:gold;}.cls-2,.cls-4{stroke-width:22px;}.cls-3,.cls-6{fill:#fff;}.cls-4{fill:#b43ce0;}.cls-5{fill:none;stroke-width:19px;}.cls-7{fill:#92fff4;}</style></defs><title>Asset 12</title><g id="Layer_2" data-name="Layer 2"><g id="Layer_2-2" data-name="Layer 2"><polygon class="cls-1" points="1920.5 1080.5 0.5 1080.5 2.5 0.5 1922.5 0.5 1920.5 1080.5"/><path class="cls-2" d="M643.92,566.13l-.71-1.88c-3.71-9.9-10.81-9.58-14.08.47h0c-2.13,11.28-7.41,12.69-13,11.46L585,571.35c-4,89-81,226-81,226l128-142,50,146V572.17l-30.29,7.13C646.6,579.92,645.73,571,643.92,566.13Z"/></g><g id="Layer_4" data-name="Layer 4"><path class="cls-3" d="M1426.54,751.54l21.43,7.8c7.8-24.94-3.7-45.09-31.33-55.14-27.35-10-51.21-1.4-59.42,21.15-7.18,19.73,1.19,36.19,26.61,54.06,20.22,13.75,25.5,22.05,21.4,33.33-4.21,11.56-16.57,15.68-31.22,10.35-13.24-4.82-18.24-10.74-19.66-22.86h.1V706.92c0-18.9-3-28.5-11.7-36.9-8.1-7.2-19.5-11.4-32.1-11.4-17,0-28.9,6.49-40.8,22.4v-19.1h-22.8v23.7c-14.1-19.2-28.2-27-49.2-27-17.7,0-32.7,5.4-43.8,16.2-13.8,13.2-21.9,34.5-21.9,56.7,0,41.1,27.3,72,63.9,72,21.6,0,37.5-9.3,51-29.7v29.1c0,14.4-3.6,25.5-10.5,33-7.58,8.17-20.84,13.21-34.8,13.49h-42.1c-14.4,0-28.2-5.1-36-13.5-6.9-7.5-10.5-18.6-10.5-33v-103l-.25-.09.25-.11c-1.18-25.58-18.59-40.5-47-41.08l-30.74,0c-29.09,0-48.59,16.2-48.59,40.2,0,21,13.5,33.6,43.5,41.71,23.7,6,32.5,11,32.5,21,0,8,1.64,21-40.36,22-32,.75-44.44-30.44-44.44-30.44s-40.55,27.93-67.17,27.3c-36.39-.86-46.53-30.24-47.73-41.94h115.2c.3-3.3.3-7.2.3-9,0-40.5-30-70.8-70.2-70.8-40.5,0-69.6,30.3-69.6,72.9,0,42,29.4,72.05,70.5,72,31.14,0,61.93-22,61.93-22s9.21,22,50.77,22c48.44,0,63.2-16.2,63.2-40.2a38.59,38.59,0,0,0-11.1-27c-6.6-6.61-15.9-11.11-33.6-15.91-24.9-6.9-30.9-11.4-30.9-23.4s9.59-19.8,24.9-19.8c.82,0,30.62,0,31.41.06,14.54.79,24,8.7,24,20.94l.34,11.5,0,0v89.43c0,.37,0,.74,0,1.1.17,22.56,5.89,39.79,18.29,51.6,12.3,12,30,18.3,51,18.3h41.53c20.73-.12,38.19-6.41,50.37-18.29,12.6-12,18.3-27.6,18.3-50.7V709.68c.81-7.79,3.41-13.18,8.7-19A34.41,34.41,0,0,1,1305,679c9.3,0,17.4,3.6,21.6,9.3,3.6,4.8,5.1,11.4,5.1,23.7v87.57a4.49,4.49,0,0,0,0,.64c1,18.28,13.1,32,36,40.33,27.63,10.06,51.78,1.61,60-20.94a38.69,38.69,0,0,0-1.2-29.17c-3.94-8.46-11.14-15.87-26.14-26.44-21-15-25.13-21.28-21-32.55s15.79-15.33,30.17-10.09c14.94,5.44,22,16.64,17.63,28.76Zm-190,14.19c-9,10.5-21.9,16.8-35.1,16.8-26.1,0-45.3-22.2-45.3-51.91,0-30,18.9-51,45.9-51,12.3,0,25.2,6,33.6,15.3,8.1,9,10.8,18.6,10.8,36.6C1246.45,745.33,1242.55,758.83,1236.55,765.73ZM871.26,698.22c8.1-12,21.9-19.2,37.2-19.2a47.46,47.46,0,0,1,38.1,18.9c4.8,6.9,6.9,12.9,7.8,23.7h-90.9C865.26,710.52,867.06,704.82,871.26,698.22Z"/><path class="cls-3" d="M1111.5,793.4v1.1h0C1111.5,794.14,1111.5,793.77,1111.5,793.4Z"/><path class="cls-3" d="M1342.65,799.59v.64h0A4.49,4.49,0,0,1,1342.65,799.59Z"/><path class="cls-3" d="M1342.65,799.59v-3.76C1342.6,797.11,1342.6,798.36,1342.65,799.59Z"/><path class="cls-3" d="M602.73,396c-18.6,0-34.61,5.78-46.65,16C548,365.14,513.81,337.5,461.5,337.5h-53v200H457c29,0,52.1-7.5,69.46-23.09a85.29,85.29,0,0,0,12.11-13.47c10.71,24.44,33.82,39.86,63.25,39.86C626.4,540.8,627.85,396,602.73,396ZM505.11,500.52c-14.38,11.38-28.76,15-62.62,15h-9v-157h27c45.84,0,71.6,27.56,71.6,75.8C532.07,464,523.09,486.14,505.11,500.52Zm97.56,18.91c-28.2,0-47.1-20.7-47.1-51.3,0-30.9,18.9-51.6,47.4-51.6,27.9,0,46.5,20.7,46.5,51.6C649.47,498.13,630,519.43,602.67,519.43Z"/><path class="cls-3" d="M621.38,468.65c0,25.54,12.72,44.1,32.88,49.78-6-26.94-5.7-71.94.59-99.24C634.75,425,621.38,443.81,621.38,468.65Z"/><path class="cls-3" d="M886.35,492.33c-24.9-6.9-30.9-11.4-30.9-23.4s9.6-19.8,24.9-19.8a26.27,26.27,0,0,1,26.4,26l27.19-25.65s-29.09-19-52.69-19c-11.92,0-22.22,2.72-30.23,7.58-.08-.28-.18-.56-.27-.84-9-26.87-31.78-44.07-61.41-44.07-23.3,0-42.52,9.1-55.84,29.49V396.5h-18v20.75C702.08,403.84,684.22,396,669,396c-6.23,0-11,9.32-14.17,23.21a48.08,48.08,0,0,1,13.33-1.84c28.2,0,47.1,20.7,47.1,51.3,0,30.9-18.9,51.6-47.4,51.6a50.54,50.54,0,0,1-13.62-1.82c3,13.43,7.62,22.37,13.86,22.37,10.65,0,26.38-6.88,37-12.19a46.81,46.81,0,0,0,10.43-7.17v78.95h0v200.1h48.6c29.1,0,52.2-7.5,69.6-23.1,20.4-18.3,31.5-46.2,31.5-80.1,0-60.3-36.3-96.9-96.6-96.9H738.5V513.14c7.57,9.9,11.8,13.5,20.28,17.69a67.31,67.31,0,0,0,30.56,7.2c26.87,0,48-14.42,58.51-37.76l.34.24c6.88,4.83,16.14,8.73,28,11.92,23.7,6,31.51,12,31.51,24,0,12.3-10.21,20.4-25.81,20.4-17.4,0-27.6-8.4-29.1-24h-22.5c2.4,27.9,20.1,42.6,51.6,42.6,17.17,0,31.06-5.52,39.65-14.9a36.63,36.63,0,0,0,9.55-25.3,38.58,38.58,0,0,0-11.1-27C913.35,501.63,904.05,497.13,886.35,492.33ZM740.68,621.69h27c45.9,0,71.7,27.6,71.7,75.9,0,29.7-9,51.9-27,66.3-14.4,11.4-28.8,15-62.7,15h-9Zm43.78-103.06c-25.92,0-43.73-18.12-45.46-45.89-.09-1.47-.14-3-.14-4.51q0-3.37.27-6.59c2.4-28.74,20.55-47.71,46.23-47.71a44.72,44.72,0,0,1,32.7,14.4c8.1,9,12,21.3,12,37.5C830.06,497.33,811.76,518.63,784.46,518.63Z"/><path class="cls-4" d="M1162.19,223.07S1038.73,323.74,1020,344C980.55,386.6,913.27,458.44,912,454c-3.83-13.39-22.16-19.47-32.75-19.47a23.7,23.7,0,0,0-7.82,1.46,35.43,35.43,0,0,1-39.1-11.39c-10.92-13.43-26.16-22.4-45-22.4-16.38,0-43.21,14-56.39,23.46-6.39,4.59-5-28.16-5-28.16,0-138.6,98.24-260,98.24-260l-15.7,135.93s51.83-74.58,81.31-96.91l19.66-14.87-32,117.58S987,185.69,1040.59,154.83l4.2-2.42L991.31,284.74Z"/><path class="cls-5" d="M942.74,609c-23.34,13.85-6.67,3.7-30,17.55h131.68a30.11,30.11,0,0,0,8.44-1.21l.85-.25c28.7-8.45,28.6-49.13-.14-57.44h0a30.26,30.26,0,0,0-8.3-1.17H882.5"/><path class="cls-3" d="M800.05,440.22a14.7,14.7,0,1,0,14.4,15C814.45,446.82,808.15,440.22,800.05,440.22Zm-.18,18.24a3.54,3.54,0,0,1,.07-7.07,3.54,3.54,0,0,1-.07,7.07Z"/><path class="cls-3" d="M1252.75,849.42h0Z"/><path class="cls-6" d="M1385,451l-113-8-42-108-43,108-116,8,91,72-69,152,137-102,97,62-30-113Zm-155.94,91.35-72.43,56,36.48-83.49L1145,475.34l61.32-4.39,22.74-59.33,22.73,59.87,59.21,3.85-46.52,39,15.86,62.06Z"/><polygon class="cls-7" points="1264.48 514.34 1280.34 576.4 1229.06 542.35 1156.63 598.38 1193.11 514.89 1145 475.34 1206.32 470.95 1229.06 411.62 1251.79 471.49 1311 475.34 1264.48 514.34"/><path class="cls-2" d="M624.08,364.21l.71,1.89a11.17,11.17,0,0,0,21.08-.47h0c1.78-5.47,3.13-12.63,15-10.46L684,363c4-89,58-182,58-182L636,275l-94-78,36,168,34.29-7.95A11.16,11.16,0,0,1,624.08,364.21Z"/></g></g></svg>