<svg xmlns="http://www.w3.org/2000/svg" viewBox="0 0 1042.86 777.01"><defs><style>.cls-1{fill:gold;}.cls-1,.cls-2,.cls-3,.cls-4{stroke:#fff;stroke-miterlimit:10;}.cls-1,.cls-3{stroke-width:22px;}.cls-2,.cls-5{fill:#fff;}.cls-3{fill:#b43ce0;}.cls-4{fill:none;stroke-width:19px;}.cls-6{fill:#92fff4;}</style></defs><title>color-doops-designs-logo</title><g id="Layer_2" data-name="Layer 2"><g id="Layer_2-2" data-name="Layer 2"><path class="cls-1" d="M235.92,465l-.71-1.88c-3.71-9.9-10.81-9.59-14.08.47h0c-2.13,11.28-7.41,12.69-13,11.45L177,470.18c-4,89-81,226-81,226l128-142,50,146V471l-30.29,7.13C238.6,478.75,237.73,469.79,235.92,465Z"/></g><g id="Layer_4" data-name="Layer 4"><path class="cls-2" d="M1018.54,650.38l21.43,7.8c7.8-24.94-3.7-45.09-31.33-55.14-27.35-10-51.21-1.4-59.42,21.15-7.18,19.73,1.19,36.19,26.61,54.06,20.22,13.75,25.5,22,21.4,33.33C993,723.14,980.66,727.26,966,721.93c-13.24-4.82-18.24-10.74-19.66-22.86h.1V605.76c0-18.9-3-28.5-11.7-36.9-8.1-7.2-19.5-11.4-32.1-11.4-17,0-28.9,6.49-40.8,22.4v-19.1h-22.8v23.7c-14.1-19.2-28.2-27-49.2-27-17.7,0-32.7,5.4-43.8,16.2-13.8,13.2-21.9,34.5-21.9,56.7,0,41.1,27.3,72,63.9,72,21.6,0,37.5-9.3,51-29.7v29.1c0,14.4-3.6,25.5-10.5,33-7.58,8.17-20.84,13.21-34.8,13.49h-42.1c-14.4,0-28.2-5.1-36-13.5-6.9-7.5-10.5-18.6-10.5-33v-103l-.25-.09.25-.11c-1.18-25.58-18.59-40.5-47-41.08l-30.74,0c-29.09,0-48.59,16.2-48.59,40.2,0,21,13.5,33.6,43.5,41.71,23.7,6,32.5,11,32.5,21,0,8,1.64,21-40.36,22-32,.75-44.44-30.44-44.44-30.44s-40.55,27.93-67.17,27.3c-36.39-.86-46.53-30.24-47.73-41.94h115.2c.3-3.3.3-7.2.3-9,0-40.5-30-70.8-70.2-70.8-40.5,0-69.6,30.3-69.6,72.9,0,42,29.4,72,70.5,72,31.14,0,61.93-22,61.93-22s9.21,22,50.77,22c48.44,0,63.2-16.2,63.2-40.2a38.59,38.59,0,0,0-11.1-27c-6.6-6.61-15.9-11.11-33.6-15.91-24.9-6.9-30.9-11.4-30.9-23.4s9.59-19.8,24.9-19.8c.82,0,30.62,0,31.41.06,14.54.79,24,8.7,24,20.94l.34,11.5.05,0V698c0,.37,0,.74,0,1.1.17,22.56,5.89,39.79,18.29,51.6,12.3,12,30,18.3,51,18.3h41.53c20.73-.12,38.19-6.41,50.37-18.29,12.6-12,18.3-27.6,18.3-50.7V608.52c.81-7.79,3.41-13.18,8.7-19a34.41,34.41,0,0,1,26.4-11.7c9.3,0,17.4,3.6,21.6,9.3,3.6,4.8,5.1,11.4,5.1,23.7v87.57a4.49,4.49,0,0,0,0,.64c1,18.28,13.1,32,35.95,40.33,27.63,10.06,51.78,1.61,60-20.94a38.69,38.69,0,0,0-1.2-29.17c-3.94-8.46-11.14-15.87-26.14-26.44-21-15-25.13-21.28-21-32.55s15.79-15.33,30.17-10.09c14.94,5.44,22,16.64,17.63,28.76Zm-190,14.19c-9,10.5-21.9,16.8-35.1,16.8-26.1,0-45.3-22.2-45.3-51.91,0-30,18.9-51,45.9-51,12.3,0,25.2,6,33.6,15.3,8.1,9,10.8,18.6,10.8,36.6C838.45,644.17,834.55,657.67,828.55,664.57ZM463.26,597.06c8.1-12,21.9-19.2,37.2-19.2a47.46,47.46,0,0,1,38.1,18.9c4.8,6.9,6.9,12.9,7.8,23.7h-90.9C457.26,609.36,459.06,603.66,463.26,597.06Z"/><path class="cls-2" d="M703.5,692.24v1.1h0C703.5,693,703.5,692.61,703.5,692.24Z"/><path class="cls-2" d="M934.65,698.43v.64h0A4.49,4.49,0,0,1,934.65,698.43Z"/><path class="cls-2" d="M934.65,698.43v-3.76C934.6,696,934.6,697.2,934.65,698.43Z"/><path class="cls-2" d="M194.73,294.82c-18.6,0-34.61,5.78-46.65,16C140,264,105.81,236.34,53.5,236.34H.5v200H49c29,0,52.1-7.5,69.46-23.09a85.29,85.29,0,0,0,12.11-13.47c10.71,24.44,33.82,39.86,63.25,39.86C218.4,439.64,219.85,294.82,194.73,294.82ZM97.11,399.36c-14.38,11.38-28.76,15-62.62,15h-9v-157h27c45.84,0,71.6,27.56,71.6,75.8C124.07,362.81,115.09,385,97.11,399.36Zm97.56,18.91c-28.2,0-47.1-20.7-47.1-51.3,0-30.9,18.9-51.6,47.4-51.6,27.9,0,46.5,20.7,46.5,51.6C241.47,397,222,418.27,194.67,418.27Z"/><path class="cls-2" d="M213.38,367.49c0,25.54,12.71,44.1,32.88,49.77-6-26.93-5.7-71.93.59-99.23C226.75,323.79,213.38,342.65,213.38,367.49Z"/><path class="cls-2" d="M478.35,391.17c-24.9-6.9-30.9-11.4-30.9-23.4s9.6-19.8,24.9-19.8a26.27,26.27,0,0,1,26.4,26l27.19-25.65s-29.09-18.95-52.69-18.95c-11.92,0-22.22,2.72-30.23,7.58-.08-.28-.18-.56-.27-.84C433.7,309.24,411,292,381.34,292c-23.3,0-42.52,9.1-55.84,29.49V295.34h-18v20.75c-13.42-13.41-31.28-21.27-46.48-21.27-6.23,0-11,9.32-14.17,23.21a48.08,48.08,0,0,1,13.33-1.84c28.2,0,47.1,20.7,47.1,51.3,0,30.9-18.9,51.6-47.4,51.6a50.54,50.54,0,0,1-13.62-1.82c3,13.43,7.62,22.37,13.86,22.37,10.65,0,26.38-6.88,36.95-12.19a46.81,46.81,0,0,0,10.43-7.17v79h0v200.1h48.6c29.1,0,52.2-7.5,69.6-23.1,20.4-18.3,31.5-46.2,31.5-80.1,0-60.3-36.3-96.9-96.6-96.9H330.5V412c7.57,9.9,11.8,13.5,20.28,17.69a67.31,67.31,0,0,0,30.56,7.2c26.87,0,48.05-14.42,58.51-37.76l.34.24c6.88,4.83,16.14,8.73,28,11.92,23.7,6,31.51,12,31.51,24,0,12.3-10.21,20.4-25.81,20.4-17.4,0-27.6-8.4-29.1-24h-22.5c2.4,27.9,20.1,42.6,51.6,42.6,17.17,0,31.06-5.52,39.65-14.9a36.63,36.63,0,0,0,9.55-25.3,38.58,38.58,0,0,0-11.1-27C505.35,400.47,496.05,396,478.35,391.17ZM332.68,520.53h27c45.9,0,71.7,27.6,71.7,75.9,0,29.7-9,51.9-27,66.3-14.4,11.4-28.8,15-62.7,15h-9Zm43.78-103.06c-25.92,0-43.73-18.12-45.46-45.89-.09-1.47-.14-3-.14-4.51q0-3.37.27-6.59c2.4-28.74,20.55-47.71,46.23-47.71a44.72,44.72,0,0,1,32.7,14.4c8.1,9,12,21.3,12,37.5C422.06,396.17,403.76,417.47,376.46,417.47Z"/><path class="cls-3" d="M754.19,121.91S630.73,222.58,612,242.81c-39.45,42.63-106.73,114.47-108,110-3.83-13.4-22.16-19.47-32.75-19.47a23.65,23.65,0,0,0-7.82,1.46,35.42,35.42,0,0,1-39.1-11.4C413.4,310,398.17,301,379.34,301,363,301,336.13,315,323,324.5c-6.39,4.58-4.95-28.16-4.95-28.16,0-138.61,98.24-260,98.24-260l-15.7,135.93s51.83-74.58,81.31-96.91L501.51,60.5l-32,117.59S579,84.53,632.59,53.67l4.2-2.42L583.31,183.58Z"/><path class="cls-4" d="M534.74,507.85c-23.34,13.86-6.67,3.71-30,17.56H636.42a29.76,29.76,0,0,0,8.44-1.22l.85-.25c28.7-8.44,28.6-49.13-.14-57.43h0a29.93,29.93,0,0,0-8.3-1.17H474.5"/><path class="cls-2" d="M392.05,339.06a14.7,14.7,0,1,0,14.4,15C406.45,345.66,400.15,339.06,392.05,339.06Zm-.18,18.24a3.54,3.54,0,0,1,.07-7.07,3.54,3.54,0,0,1-.07,7.07Z"/><path class="cls-2" d="M844.75,748.26h0Z"/><path class="cls-5" d="M977,349.84l-113-8-42-108-43,108-116,8,91,72-69,152,137-102,97,62-30-113ZM821.06,441.19l-72.43,56,36.48-83.49L737,374.18l61.32-4.39,22.74-59.33,22.73,59.87L903,374.18l-46.52,39,15.86,62.06Z"/><polygon class="cls-6" points="856.48 413.18 872.34 475.24 821.06 441.19 748.63 497.22 785.11 413.73 737 374.18 798.32 369.79 821.06 310.46 843.79 370.33 903 374.18 856.48 413.18"/><path class="cls-1" d="M216.08,263.05l.71,1.89a11.17,11.17,0,0,0,21.08-.47h0c1.78-5.47,3.13-12.63,15-10.46L276,261.84c4-89,58-182,58-182l-106,94-94-78,36,168,34.29-8A11.18,11.18,0,0,1,216.08,263.05Z"/></g></g></svg>