<svg xmlns="http://www.w3.org/2000/svg" viewBox="0 0 1217.28 785.27"><defs><style>.cls-1{fill:#fff;}.cls-1,.cls-2,.cls-3{stroke:#fff;stroke-miterlimit:10;}.cls-2,.cls-3{fill:none;}.cls-2{stroke-width:24px;}.cls-3{stroke-width:19px;}</style></defs><title>logo-outline</title><g id="Layer_2" data-name="Layer 2"><g id="Layer_4" data-name="Layer 4"><path class="cls-1" d="M359.19,514.77h53.1c60.31,0,96.61,36.6,96.61,96.9,0,33.9-11.1,61.8-31.5,80.1-17.4,15.6-40.5,23.1-69.61,23.1h-48.6Zm25.2,178.5h9c33.9,0,48.3-3.6,62.71-15,18-14.4,27-36.6,27-66.3,0-48.3-25.8-75.9-71.71-75.9h-27Z"/><path class="cls-1" d="M545.29,653.07c1.2,11.7,3.3,17.7,9,25.2a45,45,0,0,0,37.2,18.9c17.1,0,33.3-9.3,41.4-23.7L653,681c-11.4,23.1-35.1,37.2-61.5,37.2-41.1,0-70.5-30-70.5-72,0-42.6,29.1-72.9,69.6-72.9,40.2,0,70.2,30.3,70.2,70.8,0,1.8,0,5.7-.3,9Zm91.2-16.8c-.9-10.8-3-16.8-7.8-23.7a47.46,47.46,0,0,0-38.1-18.9c-15.3,0-29.1,7.2-37.2,19.2-4.2,6.6-6,12.3-7.8,23.4Z"/><path class="cls-1" d="M743.09,614.37v-1.5c0-12.9-10.5-21-26.4-21-15.3,0-24.9,7.8-24.9,19.8s6,16.5,30.9,23.4c17.7,4.8,27,9.3,33.6,15.9a38.63,38.63,0,0,1,11.1,27c0,24-19.8,40.2-49.2,40.2-31.5,0-49.2-14.7-51.6-42.6h22.5c1.5,15.6,11.7,24,29.1,24,15.6,0,25.8-8.1,25.8-20.4,0-12-7.8-18-31.5-24-30-8.1-43.5-20.7-43.5-41.7,0-24,19.5-40.2,48.6-40.2,29.4,0,47.1,15,48.3,41.1Z"/><path class="cls-1" d="M814.59,552.87a14.47,14.47,0,0,1-14.7,14.4,14.7,14.7,0,0,1,.3-29.4C808.29,537.87,814.59,544.47,814.59,552.87Zm-3.3,162H788.48V576.57h22.81Z"/><path class="cls-1" d="M945.19,576.57H968v139.2c0,23.1-5.7,38.7-18.29,50.7-12.31,12-30,18.3-51,18.3q-38.7,0-61.2-25.2l15.6-15.6c6.3,6.6,9.3,9.3,13.2,12,7.8,4.8,20.7,8.1,32.4,8.1,14.4,0,28.2-5.1,36-13.5,6.89-7.5,10.5-18.6,10.5-33v-29.1c-13.5,20.4-29.41,29.7-51,29.7-36.6,0-63.9-30.9-63.9-72,0-22.2,8.1-43.5,21.9-56.7,11.1-10.8,26.1-16.2,43.8-16.2,21,0,35.1,7.8,49.21,27Zm-90.91,68.7c0,29.7,19.2,51.9,45.3,51.9,13.2,0,26.1-6.3,35.11-16.8,6-6.9,9.89-20.4,9.89-34.2,0-18-2.7-27.6-10.8-36.6-8.4-9.3-21.3-15.3-33.6-15.3C873.18,594.27,854.28,615.27,854.28,645.27Z"/><path class="cls-1" d="M1012.68,576.57v19.5c12-16.2,24-22.8,41.1-22.8,12.6,0,24,4.2,32.1,11.4,8.7,8.4,11.7,18,11.7,36.9v93.3h-22.8v-88.2c0-12.3-1.5-18.9-5.1-23.7-4.2-5.7-12.3-9.3-21.6-9.3a34.41,34.41,0,0,0-26.4,11.7c-6.6,7.2-9,13.8-9,25.2v84.3h-22.8V576.57Z"/><path class="cls-1" d="M1192.48,614.37v-1.5c0-12.9-10.5-21-26.4-21-15.3,0-24.9,7.8-24.9,19.8s6,16.5,30.9,23.4c17.7,4.8,27,9.3,33.6,15.9a38.63,38.63,0,0,1,11.1,27c0,24-19.8,40.2-49.2,40.2-31.5,0-49.2-14.7-51.6-42.6h22.5c1.5,15.6,11.7,24,29.1,24,15.6,0,25.8-8.1,25.8-20.4,0-12-7.8-18-31.5-24-30-8.1-43.5-20.7-43.5-41.7,0-24,19.5-40.2,48.6-40.2,29.4,0,47.1,15,48.3,41.1Z"/><path class="cls-1" d="M.5,249.67H53.6c60.3,0,96.6,36.6,96.6,96.9,0,33.9-11.1,61.8-31.5,80.1-17.4,15.6-40.5,23.1-69.6,23.1H.5Zm25.2,178.5h9c33.9,0,48.3-3.6,62.7-15,18-14.4,27-36.6,27-66.3,0-48.3-25.8-75.9-71.7-75.9h-27Z"/><path class="cls-1" d="M265,381.07c0,40.5-31.2,72-70.8,72-41.1,0-69.9-30-69.9-72.6,0-42.9,28.8-72.3,70.8-72.3C235.9,308.17,265,338.47,265,381.07Zm-117.3-.3c0,30.6,18.9,51.3,47.1,51.3,27.3,0,46.8-21.3,46.8-51.3,0-30.9-18.6-51.6-46.5-51.6C166.6,329.17,147.7,349.87,147.7,380.77Z"/><path class="cls-1" d="M382.39,381.07c0,40.5-31.2,72-70.8,72-41.1,0-69.9-30-69.9-72.6,0-42.9,28.8-72.3,70.8-72.3C353.29,308.17,382.39,338.47,382.39,381.07Zm-117.3-.3c0,30.6,18.9,51.3,47.1,51.3,27.3,0,46.8-21.3,46.8-51.3,0-30.9-18.6-51.6-46.5-51.6C284,329.17,265.09,349.87,265.09,380.77Z"/><path class="cls-1" d="M382,311.47v25.2c13.2-20.4,27.3-28.5,50.4-28.5,38.4,0,65.1,29.4,65.1,71.4,0,43.5-26.7,73.5-65.1,73.5a66.28,66.28,0,0,1-30.3-7.2c-8.4-4.2-12.6-7.8-20.1-17.7v86.4h-22.8V311.47Zm0,71.4c0,30.3,18.3,50.4,45.6,50.4s45.6-21.3,45.6-52.8c0-16.2-3.9-28.5-12-37.5a44.72,44.72,0,0,0-32.7-14.4C400.89,328.57,382,350.47,382,382.87Z"/><path class="cls-1" d="M601.89,349.27v-1.5c0-12.9-10.5-21-26.4-21-15.3,0-24.9,7.8-24.9,19.8s6,16.5,30.9,23.4c17.7,4.8,27,9.3,33.6,15.9a38.63,38.63,0,0,1,11.1,27c0,24-19.8,40.2-49.2,40.2-31.5,0-49.2-14.7-51.6-42.6h22.5c1.5,15.6,11.7,24,29.1,24,15.6,0,25.8-8.1,25.8-20.4,0-12-7.8-18-31.5-24-30-8.1-43.5-20.7-43.5-41.7,0-24,19.5-40.2,48.6-40.2,29.4,0,47.1,15,48.3,41.1Z"/><path class="cls-1" d="M457.59,370.87a14.47,14.47,0,0,1-14.7,14.4,14.7,14.7,0,0,1,.3-29.4C451.29,355.87,457.59,362.47,457.59,370.87Z"/><path class="cls-2" d="M617.37,341.16l260-276-234,152,82-168-193,164,57-157-132,151,32-164s-119,126-119,268"/><path class="cls-3" d="M577.37,444.16c61.85,0,183.36.6,186.51,1,14.88,1.9,32.72,14.19,33.9,32.9,1.48,23.52-19.83,43.25-39.16,46.16-4.36.65-8.12,1.38-10.76,1h-207c23.33-13.86,6.66-3.71,30-17.56"/></g></g></svg>